<?xml version="1.0" encoding="utf-8"?>
<!-- Generator: Adobe Illustrator 24.0.0, SVG Export Plug-In . SVG Version: 6.00 Build 0)  -->
<svg version="1.1" id="Capa_1" xmlns="http://www.w3.org/2000/svg" xmlns:xlink="http://www.w3.org/1999/xlink" x="0px" y="0px"
	 viewBox="0 0 40 40" style="enable-background:new 0 0 40 40;" xml:space="preserve">
<style type="text/css">
	.st0{fill:#707070;}
</style>
<g>
	<path class="st0" d="M17.1,16.9c0-1.6-1.1-1.6-1.1-1.6h-4.4v3.4h4.1C16.4,18.7,17.1,18.5,17.1,16.9z"/>
	<path class="st0" d="M20,0C9,0,0,9,0,20c0,11,9,20,20,20c11,0,20-9,20-20C40,9,31,0,20,0z M23.9,13.6h6.2v1.9h-6.2V13.6z
		 M20.8,23.3c0,4.6-4.8,4.4-4.8,4.4H8.2V12.7H16c2.4,0,4.3,1.3,4.3,4c0,2.7-2.3,2.9-2.3,2.9C21,19.6,20.8,23.3,20.8,23.3z
		 M32.4,23.1h-7.8c0,2.8,2.6,2.6,2.6,2.6c2.5,0,2.4-1.6,2.4-1.6h2.6c0,4.3-5.2,4-5.2,4c-6.2,0-5.8-5.8-5.8-5.8c0,0,0-5.8,5.8-5.8
		C33.3,16.5,32.4,23.1,32.4,23.1z"/>
	<path class="st0" d="M16,21h-4.4v4h4.2c0.6,0,1.8-0.2,1.8-2C17.6,21,16,21,16,21z"/>
	<path class="st0" d="M27.2,18.7c-2.3,0-2.6,2.3-2.6,2.3h4.9C29.5,21,29.6,18.7,27.2,18.7z"/>
</g>
</svg>
